<?xml version="1.0" standalone="no"?>
<!DOCTYPE svg PUBLIC "-//W3C//DTD SVG 20010904//EN"
 "http://www.w3.org/TR/2001/REC-SVG-20010904/DTD/svg10.dtd">
<svg version="1.0" xmlns="http://www.w3.org/2000/svg"
 width="100.000000pt" height="100.000000pt" viewBox="0 0 100.000000 100.000000"
 preserveAspectRatio="xMidYMid meet">

<g transform="translate(0.000000,100.000000) scale(0.100000,-0.100000)"
fill="#000000" stroke="none">
<path d="M690 716 c0 -21 5 -26 25 -26 34 0 94 -26 122 -52 69 -65 39 -182
-53 -206 -57 -15 -65 -8 -157 148 l-88 150 -144 0 -145 0 0 -30 0 -30 95 0
c52 0 95 -3 95 -6 0 -19 -89 -171 -115 -196 -17 -16 -53 -36 -85 -45 -52 -15
-58 -15 -129 6 -60 18 -76 19 -82 9 -13 -20 -11 -25 18 -36 99 -39 178 -41
248 -8 61 28 76 45 153 165 l60 94 83 -141 c83 -140 84 -140 124 -144 132 -13
208 54 209 187 1 105 -58 165 -181 181 -52 6 -53 6 -53 -20z"/>
<path d="M477 479 c-15 -27 -27 -51 -27 -54 0 -3 25 -5 55 -5 30 0 55 3 55 8
0 4 -13 28 -28 54 l-27 46 -28 -49z"/>
</g>
</svg>
